<svg width="10" height="6" viewBox="0 0 10 6" fill="none" xmlns="http://www.w3.org/2000/svg">
<path d="M9.16667 0.641741C9.01054 0.486532 8.79933 0.399414 8.57917 0.399414C8.35902 0.399414 8.14781 0.486532 7.99167 0.641741L5.00001 3.59174L2.05001 0.641741C1.89387 0.486532 1.68266 0.399414 1.46251 0.399414C1.24235 0.399414 1.03114 0.486532 0.875008 0.641741C0.796901 0.71921 0.734906 0.811378 0.692598 0.912927C0.650291 1.01448 0.62851 1.1234 0.62851 1.23341C0.62851 1.34342 0.650291 1.45234 0.692598 1.55389C0.734906 1.65544 0.796901 1.74761 0.875008 1.82507L4.40834 5.35841C4.48581 5.43652 4.57798 5.49851 4.67953 5.54082C4.78108 5.58312 4.89 5.60491 5.00001 5.60491C5.11002 5.60491 5.21894 5.58312 5.32049 5.54082C5.42204 5.49851 5.51421 5.43652 5.59167 5.35841L9.16667 1.82507C9.24478 1.74761 9.30678 1.65544 9.34908 1.55389C9.39139 1.45234 9.41317 1.34342 9.41317 1.23341C9.41317 1.1234 9.39139 1.01448 9.34908 0.912927C9.30678 0.811378 9.24478 0.71921 9.16667 0.641741Z" fill="white"/>
</svg>
