<svg width="21" height="20" viewBox="0 0 21 20" fill="none" xmlns="http://www.w3.org/2000/svg">
<path d="M13.29 15.2904L12 16.5904V11.0004C12 10.7352 11.8947 10.4808 11.7071 10.2933C11.5196 10.1057 11.2652 10.0004 11 10.0004C10.7348 10.0004 10.4804 10.1057 10.2929 10.2933C10.1054 10.4808 10 10.7352 10 11.0004V16.5904L8.71001 15.2904C8.61677 15.1971 8.50608 15.1232 8.38426 15.0727C8.26244 15.0223 8.13187 14.9963 8.00001 14.9963C7.86815 14.9963 7.73758 15.0223 7.61576 15.0727C7.49394 15.1232 7.38325 15.1971 7.29001 15.2904C7.19677 15.3836 7.12281 15.4943 7.07235 15.6161C7.02189 15.738 6.99592 15.8685 6.99592 16.0004C6.99592 16.1322 7.02189 16.2628 7.07235 16.3846C7.12281 16.5065 7.19677 16.6171 7.29001 16.7104L10.29 19.7104C10.3851 19.8014 10.4973 19.8728 10.62 19.9204C10.7397 19.9733 10.8691 20.0006 11 20.0006C11.1309 20.0006 11.2603 19.9733 11.38 19.9204C11.5028 19.8728 11.6149 19.8014 11.71 19.7104L14.71 16.7104C14.8983 16.5221 15.0041 16.2667 15.0041 16.0004C15.0041 15.7341 14.8983 15.4787 14.71 15.2904C14.5217 15.1021 14.2663 14.9963 14 14.9963C13.7337 14.9963 13.4783 15.1021 13.29 15.2904ZM17.42 4.22038C16.809 2.81639 15.7545 1.65146 14.4181 0.90411C13.0817 0.15676 11.5371 -0.131784 10.021 0.0826926C8.50489 0.29717 7.10094 1.00284 6.02427 2.09156C4.9476 3.18028 4.2576 4.592 4.06001 6.11038C3.1066 6.33871 2.27023 6.90922 1.70975 7.71357C1.14927 8.51793 0.903696 9.50011 1.01968 10.4736C1.13566 11.4471 1.60511 12.3441 2.33888 12.9942C3.07265 13.6444 4.01964 14.0024 5.00001 14.0004C5.26523 14.0004 5.51958 13.895 5.70712 13.7075C5.89466 13.52 6.00001 13.2656 6.00001 13.0004C6.00001 12.7352 5.89466 12.4808 5.70712 12.2933C5.51958 12.1057 5.26523 12.0004 5.00001 12.0004C4.46958 12.0004 3.96087 11.7897 3.5858 11.4146C3.21073 11.0395 3.00001 10.5308 3.00001 10.0004C3.00001 9.46995 3.21073 8.96124 3.5858 8.58617C3.96087 8.2111 4.46958 8.00038 5.00001 8.00038C5.26523 8.00038 5.51958 7.89503 5.70712 7.70749C5.89466 7.51995 6.00001 7.2656 6.00001 7.00038C6.00257 5.81766 6.4243 4.67414 7.19028 3.77297C7.95627 2.8718 9.0169 2.27133 10.1838 2.07826C11.3506 1.88518 12.5481 2.11199 13.5636 2.71839C14.579 3.32479 15.3466 4.27152 15.73 5.39038C15.7872 5.56222 15.8899 5.71531 16.0273 5.83332C16.1647 5.95132 16.3315 6.0298 16.51 6.06038C17.1761 6.18625 17.7799 6.53399 18.223 7.04692C18.6662 7.55985 18.9226 8.20774 18.9504 8.88502C18.9782 9.56231 18.7759 10.2291 18.3763 10.7766C17.9767 11.3242 17.4035 11.7203 16.75 11.9004C16.6226 11.9332 16.503 11.9908 16.3978 12.0699C16.2927 12.149 16.2042 12.248 16.1373 12.3613C16.0705 12.4746 16.0266 12.5999 16.0082 12.7302C15.9898 12.8604 15.9972 12.993 16.03 13.1204C16.0628 13.2478 16.1204 13.3674 16.1995 13.4726C16.2786 13.5777 16.3776 13.6662 16.4909 13.7331C16.6042 13.7999 16.7295 13.8438 16.8598 13.8622C16.99 13.8806 17.1226 13.8732 17.25 13.8404C18.3024 13.5623 19.2353 12.9484 19.907 12.0918C20.5787 11.2353 20.9526 10.183 20.9718 9.09465C20.9911 8.00631 20.6546 6.94143 20.0136 6.0617C19.3725 5.18198 18.4619 4.53548 17.42 4.22038Z" fill="white"/>
</svg>
