<svg width="21" height="21" viewBox="0 0 21 21" fill="none" xmlns="http://www.w3.org/2000/svg">
<path d="M17 13.0001C16.4092 13.004 15.8265 13.1388 15.294 13.3947C14.7615 13.6506 14.2922 14.0213 13.92 14.4801L8.82 12.1301C9.05979 11.3959 9.05979 10.6044 8.82 9.87011L13.92 7.52011C14.5216 8.24608 15.3603 8.73619 16.2881 8.90395C17.216 9.07172 18.1732 8.90634 18.9909 8.43702C19.8087 7.96769 20.4344 7.22459 20.7575 6.33886C21.0807 5.45312 21.0806 4.4817 20.7573 3.59602C20.434 2.71035 19.8081 1.96736 18.9903 1.49818C18.1725 1.02901 17.2152 0.863808 16.2874 1.03174C15.3597 1.19967 14.521 1.68993 13.9195 2.41601C13.318 3.14208 12.9924 4.05729 13 5.00011C13.003 5.23835 13.0264 5.47588 13.07 5.71011L7.79 8.14011C7.22708 7.58969 6.51424 7.21763 5.7408 7.07054C4.96736 6.92345 4.16772 7.00788 3.44205 7.31325C2.71638 7.61861 2.09696 8.13133 1.6614 8.78718C1.22584 9.44302 0.9935 10.2128 0.9935 11.0001C0.9935 11.7874 1.22584 12.5572 1.6614 13.2131C2.09696 13.8689 2.71638 14.3816 3.44205 14.687C4.16772 14.9923 4.96736 15.0768 5.7408 14.9297C6.51424 14.7826 7.22708 14.4105 7.79 13.8601L13.07 16.2901C13.0264 16.5243 13.003 16.7619 13 17.0001C13 17.7912 13.2346 18.5646 13.6741 19.2224C14.1136 19.8802 14.7384 20.3929 15.4693 20.6956C16.2002 20.9984 17.0044 21.0776 17.7804 20.9233C18.5563 20.7689 19.269 20.388 19.8284 19.8285C20.3878 19.2691 20.7688 18.5564 20.9231 17.7805C21.0775 17.0046 20.9983 16.2003 20.6955 15.4694C20.3928 14.7385 19.8801 14.1138 19.2223 13.6742C18.5645 13.2347 17.7911 13.0001 17 13.0001ZM17 3.00011C17.3956 3.00011 17.7822 3.11741 18.1111 3.33718C18.44 3.55694 18.6964 3.8693 18.8478 4.23475C18.9991 4.6002 19.0387 5.00233 18.9616 5.3903C18.8844 5.77826 18.6939 6.13462 18.4142 6.41433C18.1345 6.69403 17.7781 6.88451 17.3902 6.96169C17.0022 7.03886 16.6001 6.99925 16.2346 6.84787C15.8692 6.6965 15.5568 6.44015 15.3371 6.11125C15.1173 5.78236 15 5.39568 15 5.00011C15 4.46968 15.2107 3.96097 15.5858 3.5859C15.9609 3.21083 16.4696 3.00011 17 3.00011ZM5 13.0001C4.60443 13.0001 4.21776 12.8828 3.88886 12.6631C3.55996 12.4433 3.30361 12.1309 3.15224 11.7655C3.00086 11.4 2.96126 10.9979 3.03843 10.6099C3.1156 10.222 3.30608 9.86561 3.58578 9.5859C3.86549 9.3062 4.22185 9.11571 4.60982 9.03854C4.99778 8.96137 5.39991 9.00098 5.76536 9.15236C6.13082 9.30373 6.44317 9.56008 6.66294 9.88897C6.8827 10.2179 7 10.6046 7 11.0001C7 11.5305 6.78928 12.0393 6.41421 12.4143C6.03914 12.7894 5.53043 13.0001 5 13.0001ZM17 19.0001C16.6044 19.0001 16.2178 18.8828 15.8889 18.6631C15.56 18.4433 15.3036 18.1309 15.1522 17.7655C15.0009 17.4 14.9613 16.9979 15.0384 16.6099C15.1156 16.222 15.3061 15.8656 15.5858 15.5859C15.8655 15.3062 16.2219 15.1157 16.6098 15.0385C16.9978 14.9614 17.3999 15.001 17.7654 15.1524C18.1308 15.3037 18.4432 15.5601 18.6629 15.889C18.8827 16.2179 19 16.6046 19 17.0001C19 17.5305 18.7893 18.0393 18.4142 18.4143C18.0391 18.7894 17.5304 19.0001 17 19.0001Z" fill="white"/>
</svg>
